<?xml version="1.0" encoding="UTF-8"?><svg xmlns="http://www.w3.org/2000/svg" viewBox="0 0 924.05 862.7"><defs><style>.cls-1{fill:#3da159;}.cls-2{isolation:isolate;}.cls-3{fill:#c1bf50;}.cls-4,.cls-5{fill:#e61e2b;}.cls-5{mix-blend-mode:multiply;opacity:.2;}.cls-6{fill:#0c793f;}</style></defs><g class="cls-2"><g id="_レイヤー_2"><g id="Layer_1"><path class="cls-4" d="M725.41,525.43c-7.35,79.43-50.31,162.46-136.08,208.01-140.12,74.38-409.97,107.25-506.84,126.28-96.87,19.03-96.87-55.35-58.81-157.41,38.06-102.06,117.63-437.65,290.61-498.19,172.98-60.54,250.82,69.19,250.82,69.19,43.53,7.64,64.29,15.42,95.29,57.52,0,0,.14,0,.14.14,9.22,12.4,19.17,27.68,30.85,46.99,0,0,.14.14.29.29,2.16,3.6,4.33,7.21,6.63,11.1,22.2,36.9,31.86,85.77,27.1,136.08Z"/><path class="cls-1" d="M565.11,273.31c.87-5.91,12.83-84.33-57.08-115.9C435.37,124.55,442.29,0,442.29,0c0,0,25.37,81.3,61.98,81.3,25.37,0,85.34,43.97,91.83,104.22.14.72.29,1.59.29,2.31,2.02,26.09-6.06,55.5-31.28,85.48Z"/><path class="cls-6" d="M726.56,199.79c-30.99.58-56.22,39.93-72.94,67.17-20.61,4.76-49.16,7.5-88.51,6.34,25.23-29.98,33.3-59.39,31.28-85.48,0-.72-.14-1.59-.29-2.31,16-16.72,45.41-40.51,77.12-30.7,47.57,14.7,64-2.74,64-2.74,0,0,21.19,47.14-10.67,47.71Z"/><path class="cls-1" d="M816.37,266.97s-20.76,32.72-22.06,63.86c-.87,19.89-46.42,19.6-84.91,13.55-21.62-3.46-40.94-8.79-48.87-13.41,0-.14-.14-.14-.14-.14-30.99-42.09-51.75-49.88-95.29-57.52,39.35,1.15,67.9-1.59,88.51-6.34,0,0,41.51,40.51,90.53,24.94,48.87-15.57,72.22-24.94,72.22-24.94Z"/><path class="cls-6" d="M924.05,462.73s-52.76-6.05-76.11,12.11c-11.68,9.08-50.16-14.85-86.2-40.94l-.14-.14c-34.45-25.23-66.31-52.47-69.92-55.5-.14-.14-.29-.29-.29-.29-11.68-19.32-21.62-34.6-30.85-46.99,7.93,4.61,27.24,9.95,48.87,13.41,0,0,39.93,50.89,102.21,41.37,62.27-9.51,112.44,76.98,112.44,76.98Z"/><path class="cls-1" d="M816.37,605.01s-77.7,42.67-90.96-79.57c4.76-50.31-4.9-99.18-27.1-136.08-2.31-3.89-4.47-7.5-6.63-11.1,3.6,3.03,35.46,30.27,69.92,55.5l.14.14c2.45,3.46,46.99,64.58,36.9,103.21-10.38,39.79,17.73,67.9,17.73,67.9Z"/><path class="cls-3" d="M425.5,299.32c3.65,2.89,3.48,9.18-.38,14.05-3.86,4.87-9.95,6.46-13.59,3.57-3.65-2.89-3.48-9.18.38-14.05,3.86-4.87,9.95-6.46,13.59-3.57Z"/><path class="cls-3" d="M378.06,221.13c3.65,2.89,3.48,9.18-.38,14.05s-9.95,6.46-13.59,3.57c-3.65-2.89-3.48-9.18.38-14.05,3.86-4.87,9.95-6.46,13.59-3.57Z"/><path class="cls-3" d="M329.3,420.59c3.65,2.89,3.48,9.18-.38,14.05-3.86,4.87-9.95,6.46-13.59,3.57-3.65-2.89-3.48-9.18.38-14.05,3.86-4.87,9.95-6.46,13.59-3.57Z"/><path class="cls-3" d="M308.42,308.93c3.65,2.89,3.48,9.18-.38,14.05-3.86,4.87-9.95,6.46-13.59,3.57-3.65-2.89-3.48-9.18.38-14.05,3.86-4.87,9.95-6.46,13.59-3.57Z"/><path class="cls-3" d="M190.12,416.68c3.65,2.89,3.48,9.18-.38,14.05-3.86,4.87-9.95,6.46-13.59,3.57-3.65-2.89-3.48-9.18.38-14.05,3.86-4.87,9.95-6.46,13.59-3.57Z"/><path class="cls-3" d="M298.8,540.25c3.65,2.89,3.48,9.18-.38,14.05-3.86,4.87-9.95,6.46-13.59,3.57s-3.48-9.18.38-14.05c3.86-4.87,9.95-6.46,13.59-3.57Z"/><path class="cls-3" d="M174.06,561.54c3.65,2.89,3.48,9.18-.38,14.05-3.86,4.87-9.95,6.46-13.59,3.57s-3.48-9.18.38-14.05c3.86-4.87,9.95-6.46,13.59-3.57Z"/><ellipse class="cls-3" cx="97.57" cy="634.7" rx="11.24" ry="8.43" transform="translate(-460.33 316.71) rotate(-51.58)"/><ellipse class="cls-3" cx="167.07" cy="706.32" rx="11.24" ry="8.43" transform="translate(-490.13 398.28) rotate(-51.58)"/><path class="cls-3" d="M236.89,618.31c3.65,2.89,3.48,9.18-.38,14.05-3.86,4.87-9.95,6.46-13.59,3.57-3.65-2.89-3.48-9.18.38-14.05,3.86-4.87,9.95-6.46,13.59-3.57Z"/><ellipse class="cls-3" cx="291.82" cy="696.07" rx="11.24" ry="8.43" transform="translate(-434.87 492.12) rotate(-51.58)"/><path class="cls-3" d="M449.1,704.29c3.65,2.89,3.48,9.18-.38,14.05-3.86,4.87-9.95,6.46-13.59,3.57-3.65-2.89-3.48-9.18.38-14.05,3.86-4.87,9.95-6.46,13.59-3.57Z"/><ellipse class="cls-3" cx="347.22" cy="764.42" rx="11.24" ry="8.43" transform="translate(-467.45 561.41) rotate(-51.58)"/><path class="cls-3" d="M415.88,571.8c3.65,2.89,3.48,9.18-.38,14.05-3.86,4.87-9.95,6.46-13.59,3.57-3.65-2.89-3.48-9.18.38-14.05,3.86-4.87,9.95-6.46,13.59-3.57Z"/><path class="cls-3" d="M449.1,430.84c3.65,2.89,3.48,9.18-.38,14.05-3.86,4.87-9.95,6.46-13.59,3.57-3.65-2.89-3.48-9.18.38-14.05,3.86-4.87,9.95-6.46,13.59-3.57Z"/><ellipse class="cls-3" cx="528.32" cy="330.97" rx="11.24" ry="8.43" transform="translate(-59.31 539.21) rotate(-51.58)"/><path class="cls-3" d="M581.71,430.84c3.65,2.89,3.48,9.18-.38,14.05-3.86,4.87-9.95,6.46-13.59,3.57-3.65-2.89-3.48-9.18.38-14.05s9.95-6.46,13.59-3.57Z"/><path class="cls-3" d="M544.2,584.4c3.65,2.89,3.48,9.18-.38,14.05s-9.95,6.46-13.59,3.57c-3.65-2.89-3.48-9.18.38-14.05,3.86-4.87,9.95-6.46,13.59-3.57Z"/><ellipse class="cls-3" cx="654.62" cy="525.36" rx="11.24" ry="8.43" transform="translate(-163.79 711.75) rotate(-51.58)"/><path class="cls-3" d="M544.2,687.26c3.65,2.89,3.48,9.18-.38,14.05-3.86,4.87-9.95,6.46-13.59,3.57-3.65-2.89-3.48-9.18.38-14.05,3.86-4.87,9.95-6.46,13.59-3.57Z"/><path class="cls-3" d="M89.59,722.8c3.65,2.89,3.48,9.18-.38,14.05-3.86,4.87-9.95,6.46-13.59,3.57-3.65-2.89-3.48-9.18.38-14.05,3.86-4.87,9.95-6.46,13.59-3.57Z"/><path class="cls-3" d="M60.5,794.26c3.65,2.89,3.48,9.18-.38,14.05-3.86,4.87-9.95,6.46-13.59,3.57-3.65-2.89-3.48-9.18.38-14.05,3.86-4.87,9.95-6.46,13.59-3.57Z"/><ellipse class="cls-3" cx="192.75" cy="792.82" rx="11.24" ry="8.43" transform="translate(-548.17 451.14) rotate(-51.58)"/><path class="cls-5" d="M700.47,393.39c-50.89-29.26-109.85-45.84-172.55-45.84-192.44,0-348.42,156.12-348.42,348.56,0,50.45,10.67,98.46,30.13,141.7-52.62,9.08-97.88,16.15-127.14,21.91-96.87,19.03-96.87-55.35-58.81-157.41,38.06-102.06,117.63-437.65,290.61-498.19,172.98-60.54,250.82,69.19,250.82,69.19,43.53,7.64,64.29,15.42,95.29,57.52,0,0,.14,0,.14.14,9.22,12.4,19.17,27.68,30.85,46.99,0,0,.14.14.29.29,2.16,3.6,4.33,7.21,6.63,11.1.87,1.3,1.59,2.74,2.16,4.04Z"/></g></g></g></svg>