<?xml version="1.0" encoding="UTF-8"?><svg id="_レイヤー_2" xmlns="http://www.w3.org/2000/svg" viewBox="0 0 216.38 83.68"><defs><style>.cls-1{fill:#39292e;}.cls-2{stroke:#39292e;stroke-width:.43px;}.cls-2,.cls-3{fill:none;}.cls-4{fill:#fff;}.cls-5{fill:#8b6e74;}.cls-6{fill:#a0848b;}.cls-3{stroke:#212121;stroke-dasharray:0 1.72;stroke-linecap:round;stroke-width:.86px;}</style></defs><g id="_レイヤー_1-2"><path class="cls-5" d="M67.22,15.22c-.85-1.97-2.12-3.82-3.82-5.55-1.7-1.73-3.7-3.22-6.02-4.5-2.32-1.27-4.93-2.28-7.83-3.02-4.6-1.17-9.65-1.42-15.15-.73-1.33.17-2.6.42-3.76.76-4.59,1.33-8.33,3.27-11.23,5.82-2.38,2.09-4.21,4.47-5.48,7.12-1.27,2.65-1.91,5.37-1.91,8.17,0,2.96.67,5.73,2.01,8.32,1.34,2.59,3.24,4.84,5.72,6.75,2.45,1.89,5.41,3.39,8.88,4.49,2.61.83,5.66,1.4,8.84,1.6,4.54.29,8.73-.06,12.57-1.07,2.97-.78,5.61-1.81,7.93-3.08,2.31-1.27,4.27-2.74,5.87-4.41,1.6-1.66,2.69-3.38,3.28-5.15h1.17l-.29,13.56h-1.17c-.78-.7-1.6-1.33-2.45-1.91-.85-.58-1.43-.86-1.76-.86-.13,0-.72.22-1.76.65s-2.54.9-4.5,1.42c-1.96.51-4.34.97-7.14,1.36-2.81.39-6.04.59-9.69.59-6.07,0-11.55-.54-16.44-1.63-4.89-1.09-9.05-2.63-12.48-4.62-3.43-1.99-6.05-4.38-7.88-7.15-1.83-2.77-2.74-5.82-2.74-9.15,0-.74.08-1.58.24-2.53.16-.94.46-1.95.88-3.02.42-1.07,1.01-2.19,1.76-3.36.75-1.17,1.71-2.35,2.89-3.54,1.37-1.4,3.07-2.73,5.09-4.01,2.02-1.27,4.4-2.39,7.14-3.36,2.74-.96,5.84-1.74,9.3-2.31,3.46-.58,7.34-.86,11.64-.86,3.91,0,7.34.23,10.27.68,2.93.45,5.38.95,7.34,1.48,1.96.53,3.46,1.03,4.5,1.48,1.04.45,1.63.68,1.76.68s.37-.09.73-.28.75-.41,1.17-.68c.42-.27.87-.58,1.32-.92.46-.35.88-.71,1.27-1.08h1.08v13.8l-1.17.06Z"/><path class="cls-1" d="M78.97,45.79v-.51c.13,0,.43-.03.91-.1.48-.07.99-.19,1.51-.36.52-.17.99-.41,1.39-.72.4-.31.6-.7.6-1.18,0-.31-.12-.81-.35-1.52-.23-.7-.56-1.56-.98-2.57-.42-1.01-.9-2.13-1.45-3.37-.55-1.23-1.13-2.52-1.76-3.85h-16.76c-.63,1.3-1.24,2.54-1.83,3.73-.59,1.18-1.18,2.37-1.76,3.57-.88,1.85-1.32,3.15-1.32,3.91,0,.45.17.81.5,1.1.34.29.77.53,1.29.72.52.19,1.09.33,1.7.41.61.09,1.19.16,1.73.23v.51h-13.42v-.57c1.09-.1,2.03-.34,2.8-.72.78-.38,1.23-.63,1.35-.77.29-.24.78-.8,1.45-1.7.67-.89,1.49-2.21,2.46-3.96.88-1.61,1.87-3.44,2.96-5.5s2.22-4.17,3.37-6.35c1.15-2.17,2.3-4.37,3.43-6.58,1.13-2.21,2.2-4.27,3.21-6.19l-.63-1.13c.76-.27,1.44-.6,2.05-.98.61-.38,1.14-.77,1.61-1.18.46-.41.85-.8,1.17-1.18s.56-.69.72-.92h.5c1.3,2.84,2.54,5.54,3.72,8.09,1.18,2.55,2.3,5.01,3.37,7.37,1.07,2.36,2.11,4.65,3.12,6.86,1.01,2.21,2.02,4.39,3.02,6.55.46,1.06.89,1.94,1.29,2.65.4.7.85,1.5,1.36,2.39.08.14.27.38.57.72.29.34.68.69,1.17,1.05.48.36,1.08.68,1.8.95.71.27,1.55.43,2.52.46v.62h-18.4ZM70.72,14.65c-.25.45-.62,1.15-1.1,2.11-.48.96-1.08,2.12-1.8,3.49-.71,1.37-1.5,2.92-2.36,4.65-.86,1.73-1.8,3.61-2.8,5.63h15.69c-.71-1.54-1.44-3.08-2.17-4.63s-1.45-3.02-2.14-4.44c-.69-1.42-1.32-2.72-1.89-3.91-.57-1.18-1.04-2.15-1.42-2.9Z"/><path class="cls-5" d="M110.72,70.3c-.79,2.87-1.89,5.33-3.29,7.37-1.4,2.04-3.08,3.55-5.03,4.54-1.95.98-4.08,1.47-6.4,1.47-1.99,0-3.7-.23-5.12-.68-1.42-.45-2.6-1-3.53-1.64-.94-.64-1.64-1.23-2.1-1.76-.47-.53-.76-.79-.88-.79s-.39.45-.79,1.36c-.41.91-.77,1.78-1.1,2.61h-.55l-.18-22.56h.61c.37,2.04.83,4.03,1.4,5.95.57,1.93,1.19,3.74,1.86,5.44.67,1.7,1.38,3.19,2.13,4.48.75,1.29,1.47,2.27,2.16,2.95.69.68,1.61,1.36,2.74,2.04,1.14.68,2.23,1.02,3.29,1.02,3.01,0,5.44-1.53,7.31-4.59,1.87-3.06,2.8-7.2,2.8-12.42,0-2.12-.18-3.97-.55-5.56-.37-1.59-.86-2.97-1.49-4.14-.63-1.17-1.37-2.17-2.23-3.01-.85-.83-1.77-1.59-2.74-2.27-.98-.68-1.83-1.25-2.56-1.7-.73-.45-1.41-.89-2.04-1.3-.63-.42-1.28-.83-1.95-1.25-.67-.42-1.47-.96-2.41-1.64-1.06-.76-2.07-1.79-3.05-3.12-.97-1.32-1.83-2.87-2.56-4.65-.73-1.77-1.32-3.74-1.77-5.9-.45-2.15-.67-4.44-.67-6.86,0-4.08.4-7.6,1.2-10.55.8-2.95,1.88-5.4,3.23-7.37,1.35-1.97,2.91-3.42,4.68-4.37,1.77-.94,3.63-1.42,5.58-1.42,1.83,0,3.39.28,4.69.85,1.3.57,2.37,1.19,3.2,1.87.83.68,1.46,1.3,1.89,1.87.43.57.66.85.7.85.12,0,.38-.45.76-1.36.39-.91.74-1.81,1.07-2.72h.67v20.98h-.67c-.49-2.49-1.12-4.97-1.89-7.43-.77-2.46-1.67-4.65-2.68-6.58-1.01-1.93-2.17-3.5-3.47-4.71-1.3-1.21-2.74-1.81-4.33-1.81-1.26,0-2.45.34-3.57,1.02s-2.09,1.7-2.92,3.06c-.83,1.36-1.48,3.04-1.95,5.05-.47,2-.7,4.29-.7,6.86,0,4.01.65,7.22,1.95,9.64,1.3,2.42,2.98,4.35,5.05,5.78.81.61,1.57,1.13,2.28,1.59s1.41.89,2.1,1.3c.69.42,1.39.85,2.1,1.3.71.45,1.45.95,2.22,1.47,2.76,1.89,4.89,4.63,6.41,8.22,1.52,3.59,2.28,8.07,2.28,13.44,0,3.63-.4,6.88-1.19,9.75Z"/><path class="cls-1" d="M126.93,45.79v-.52c.11,0,.39-.03.82-.1.44-.07.89-.19,1.36-.36.47-.17.89-.42,1.25-.73.36-.31.54-.71.54-1.2,0-.31-.1-.82-.31-1.53-.21-.71-.5-1.58-.88-2.6-.38-1.02-.82-2.16-1.31-3.41-.49-1.25-1.02-2.55-1.59-3.9h-15.12c-.57,1.32-1.12,2.57-1.65,3.77-.53,1.2-1.06,2.4-1.59,3.61-.8,1.87-1.19,3.19-1.19,3.95,0,.45.15.82.45,1.12.3.29.69.54,1.17.73.47.19.98.33,1.53.42.55.09,1.07.17,1.56.23v.52h-12.11v-.57c.99-.1,1.83-.35,2.53-.73.7-.38,1.11-.64,1.22-.78.26-.24.7-.81,1.31-1.72.61-.9,1.35-2.24,2.22-4,.8-1.63,1.69-3.48,2.67-5.57.99-2.08,2-4.22,3.04-6.42,1.04-2.2,2.08-4.42,3.1-6.66,1.02-2.24,1.99-4.33,2.9-6.27l-.57-1.14c.68-.28,1.3-.61,1.85-.99.55-.38,1.03-.78,1.45-1.2.42-.42.77-.81,1.05-1.2.28-.38.5-.69.65-.94h.45c1.58,3.88,2.22,5.42,3.35,8.19,1.06,2.58,2.08,5.07,3.04,7.46.97,2.39,1.9,4.71,2.81,6.94.91,2.24,1.82,4.45,2.73,6.63.42,1.08.8,1.97,1.17,2.68.36.71.77,1.52,1.22,2.42.08.14.25.38.51.73.27.35.62.7,1.05,1.07.43.36.97.68,1.62.96.64.28,1.4.43,2.27.47v.62h-16.6ZM119.48,14.27c-.23.45-.56,1.16-.99,2.13-.44.97-.98,2.15-1.62,3.54-.64,1.39-1.36,2.96-2.13,4.71-.78,1.75-1.62,3.65-2.53,5.7h14.15c-.64-1.56-1.3-3.12-1.96-4.68-.66-1.56-1.31-3.06-1.93-4.5-.62-1.44-1.19-2.76-1.71-3.95-.51-1.2-.94-2.17-1.28-2.94Z"/><path class="cls-1" d="M186.42,10.42c-.64.49-1.13,1.23-1.47,2.24-.2.52-.33,1.48-.38,2.89-.06,1.4-.11,2.9-.17,4.5-.06,1.49-.11,3.25-.15,5.28-.04,2.03-.06,4.2-.06,6.53v3.33c0,1.21,0,2.45.02,3.72.01,1.27.02,2.52.02,3.77v3.38c0,.14-.04.25-.11.34-.07.09-.18.13-.32.13-.23,0-.48-.17-.77-.52-2.41-3.4-4.61-6.52-6.59-9.36-1.98-2.84-3.88-5.56-5.68-8.14-1.8-2.58-3.57-5.1-5.3-7.57-1.73-2.46-3.56-5.01-5.49-7.65v21.95c0,1.77.03,3.36.11,4.79.07,1.42.25,2.48.53,3.17.31.8.8,1.4,1.47,1.79.67.4,1.58.68,2.74.86v.52h-10.46l.68-.62c.68-.1.68-.22,1.36-.55.68-.33,1.22-.88,1.62-1.64.4-.73.65-1.8.77-3.22.11-1.42.2-3.12.26-5.1.06-1.49.1-3.25.13-5.28.03-2.03.04-4.2.04-6.53v-6.35c0-.69-.01-1.54-.04-2.55-.08-1.01-.28-1.83-.6-2.47-.31-.64-.68-1.14-1.11-1.51-.43-.36-.89-.62-1.38-.78-.5-.16-.97-.27-1.43-.34v-.52h8.63l20.16,28.81v-17.68c0-1.39-.02-2.71-.04-3.98-.03-1.26-.16-2.26-.38-2.99-.28-.97-.79-1.76-1.51-2.37-.72-.61-1.76-1.03-3.13-1.27v-.52h10.55v.52c-1.05.17-1.89.5-2.53.99Z"/><path class="cls-1" d="M214.09,46.36h-27.91v-.52c.76-.14,1.47-.36,2.12-.68.65-.31,1.19-.74,1.62-1.3.15-.21.27-.51.36-.91.09-.4.18-.86.25-1.38s.13-1.07.16-1.64c.03-.57.05-1.14.05-1.69,0-.48,0-1.14.02-1.98.01-.83.03-1.74.04-2.73s.02-2,.02-3.04v-13.16c0-.62,0-1.27-.02-1.92-.01-.66-.04-1.28-.09-1.87-.05-.59-.12-1.12-.23-1.59-.11-.47-.25-.81-.43-1.01-.46-.55-.94-.91-1.46-1.07s-1.19-.3-2.01-.44v-.52h25.18l3.1,8.58-.46.26c-2.46-3.5-4.77-5.86-6.93-7.07-.52-.28-1.47-.52-2.87-.73-1.4-.21-3.1-.31-5.11-.31-.64,0-1.3.03-1.98.08-.68.05-1.18.11-1.48.18-.06.55-.11,1.7-.16,3.43-.05,1.73-.07,3.74-.07,6.03v3.33c0,.9,0,1.64.02,2.21.02.57.02,1.01.02,1.33v.57h.91c.46,0,.98-.02,1.57-.05s1.19-.08,1.78-.13c.59-.05,1.09-.13,1.48-.23.91-.24,1.67-.57,2.28-.99.61-.42,1.1-.92,1.48-1.51.38-.59.68-1.27.91-2.05.23-.78.43-1.66.62-2.63h.55v16.38h-.55c-.24-1.11-.62-2.25-1.12-3.43-.5-1.18-1.03-2.06-1.57-2.65-.49-.49-1.07-.88-1.76-1.2-.68-.31-1.48-.5-2.4-.57-.46-.03-.84-.06-1.14-.08-.3-.02-.61-.03-.91-.03h-2.1c-.06.49-.09,1.2-.09,2.13v6.24c0,.56,0,1.08.02,1.59.02.5.02.93.02,1.27.03,1.11.08,2.16.16,3.15.08.99.25,1.72.52,2.21.27.49.93.83,1.96,1.04,1.03.21,2.16.31,3.38.31.52,0,1.18-.02,1.98-.05.81-.03,1.65-.12,2.53-.26.97-.14,1.87-.41,2.69-.81.82-.4,1.61-.96,2.37-1.69s1.5-1.62,2.21-2.68c.71-1.06,1.45-2.33,2.21-3.82l.5.16-2.28,9.93Z"/><path class="cls-1" d="M72.98,56.47c-.18.44-.43.81-.76,1.13s-.73.56-1.2.74-1.01.27-1.6.27c-.16,0-.33,0-.48-.01-.16,0-.33-.03-.5-.07,0,.13,0,.32,0,.56s0,.51.01.78c0,.27,0,.54,0,.81v.64c.02.08.07.14.15.19s.18.07.29.1c.11.02.23.04.36.05.12,0,.23.02.32.03v.15h-3.38v-.15c.09,0,.2-.03.33-.05.13-.02.25-.05.36-.09.11-.04.21-.08.29-.14s.12-.12.12-.19v-7.59c0-.07,0-.13-.02-.16-.01-.04-.05-.08-.12-.12-.08-.05-.21-.11-.4-.2-.18-.09-.33-.15-.44-.2v-.08l2.03-.79h.08v1.56c.14-.17.28-.35.44-.53.15-.18.33-.35.52-.5.19-.15.4-.28.62-.38.22-.1.47-.15.73-.15.43,0,.8.09,1.11.26.31.17.57.4.78.68.2.28.36.6.46.96s.15.72.15,1.08c0,.51-.09.99-.27,1.42ZM71.89,54.47c-.08-.3-.21-.56-.38-.79s-.38-.4-.64-.53c-.26-.13-.56-.2-.91-.2-.24,0-.45.04-.63.13-.19.09-.35.19-.48.3-.13.11-.23.23-.3.35-.07.12-.1.21-.1.26,0,.18,0,.38,0,.58s0,.39,0,.54v.88c0,.21,0,.42.01.63.02.19.05.39.1.6s.12.39.23.56c.11.17.26.31.45.41.19.1.44.16.74.16.26,0,.52-.07.76-.22.25-.15.46-.35.65-.6.19-.26.34-.56.46-.92.11-.36.17-.74.17-1.16,0-.35-.04-.67-.12-.97Z"/><path class="cls-1" d="M82.5,57.84c-.07.16-.17.31-.29.45-.12.13-.26.23-.42.3s-.34.1-.53.1c-.31,0-.59-.09-.83-.27-.24-.18-.36-.5-.36-.96h-.03c-.07.11-.17.24-.29.38-.12.15-.27.28-.44.41-.17.13-.36.23-.56.31-.2.08-.43.12-.68.12-.15,0-.29-.02-.44-.06-.15-.04-.29-.11-.41-.22-.12-.1-.22-.24-.3-.4-.08-.16-.12-.37-.12-.6,0-.26.1-.5.31-.74.2-.24.46-.45.76-.64s.57-.36.8-.49c.23-.14.44-.25.61-.35s.33-.18.46-.25.24-.13.34-.18v-1.41s-.02-.06-.05-.13-.09-.14-.16-.21c-.08-.07-.18-.14-.32-.2s-.32-.09-.53-.09c-.15,0-.29.03-.43.08s-.27.11-.38.19-.2.16-.26.23c-.06.08-.1.14-.1.2v.62c0,.13-.07.24-.2.34-.13.1-.28.15-.43.15-.15,0-.27-.05-.38-.16-.11-.1-.16-.23-.16-.36,0-.11.03-.21.08-.3.05-.09.12-.17.21-.25.08-.07.17-.14.27-.19.1-.05.18-.1.25-.15.24-.14.48-.27.73-.4.25-.13.48-.24.71-.33s.43-.16.62-.22.34-.08.46-.08c.24,0,.46.06.67.18.21.12.36.28.45.46.04.06.06.18.07.34,0,.16.01.32.01.47,0,.33,0,.63,0,.89,0,.27,0,.52,0,.77s0,.5,0,.76c0,.26,0,.55,0,.86,0,.41.07.68.21.82s.3.2.49.2c.21,0,.37-.04.47-.13s.17-.2.21-.34h.08c0,.17-.05.34-.12.51ZM80.08,54.95c-.16.12-.37.24-.62.38-.25.13-.49.28-.72.43-.23.16-.43.33-.6.51-.17.19-.25.4-.25.64s.08.45.25.64.38.29.64.29c.24,0,.45-.03.63-.08.18-.05.35-.16.51-.32.11-.1.16-.23.16-.38v-2.11Z"/><path class="cls-1" d="M89.5,53.03h-2.08v3.6c0,.47.1.8.3,1.01.2.21.46.32.78.32.26,0,.48-.04.66-.13.17-.09.32-.22.45-.4l.08.04c-.05.14-.13.28-.23.43-.1.15-.22.29-.38.41s-.35.22-.56.29-.47.1-.76.1c-.19,0-.38-.03-.55-.09-.18-.06-.33-.15-.47-.26-.13-.11-.25-.24-.33-.38s-.13-.29-.13-.43c0-.86,0-1.67.01-2.44,0-.77.01-1.46.01-2.06h-1v-.15l1.97-1.88h.11v1.19h2.53l-.42.83Z"/><path class="cls-1" d="M92.56,58.67v-.14c.11,0,.22-.02.33-.03s.21-.04.29-.07c.09-.03.16-.08.22-.13s.09-.12.09-.21v-4.7c0-.07,0-.14-.02-.19-.01-.05-.05-.1-.12-.15-.08-.05-.18-.11-.29-.16-.11-.05-.24-.1-.36-.15v-.08l1.85-.6h.08v6.12c.02.09.06.16.12.2s.13.07.21.09c.08.02.17.03.27.03.1,0,.19.02.28.03v.14h-2.94ZM94.52,50.42c-.14.14-.32.21-.53.21s-.37-.07-.52-.22c-.15-.15-.22-.32-.22-.52s.07-.38.21-.52c.14-.14.32-.21.53-.21s.39.07.53.21.21.31.21.52-.07.39-.21.53Z"/><path class="cls-1" d="M103.37,57.6c-.14.26-.33.47-.57.64-.24.16-.51.28-.81.36s-.63.11-.96.11c-.4,0-.78-.04-1.14-.11s-.68-.18-.99-.32v-1.81h.11c.07.22.16.45.27.69.11.24.24.47.4.67.15.21.34.37.56.51s.48.2.78.2c.44,0,.78-.13,1.04-.38.26-.25.39-.64.39-1.16,0-.28-.09-.52-.27-.71-.18-.19-.42-.31-.73-.38-.25-.05-.48-.1-.71-.15s-.43-.11-.61-.18c-.35-.12-.63-.32-.84-.62s-.32-.64-.32-1.05c0-.28.06-.54.18-.77.12-.23.28-.42.48-.59.2-.16.43-.29.7-.38.27-.09.55-.13.85-.13.38,0,.72.03,1.01.1s.57.15.83.25l.16,1.7-.11.03c-.13-.27-.25-.53-.38-.76-.13-.23-.27-.43-.42-.6-.15-.17-.33-.3-.53-.39s-.42-.14-.68-.14c-.15,0-.31.03-.46.08s-.28.13-.4.24c-.11.11-.21.24-.28.4-.07.16-.11.34-.11.55,0,.34.1.58.29.73.19.15.43.26.73.33.2.05.42.09.66.14.24.05.44.1.62.14.41.1.76.31,1.05.63.29.32.43.71.43,1.18,0,.36-.07.66-.21.92Z"/><path class="cls-4" d="M111.34,57.6c-.14.26-.33.47-.57.64-.24.16-.51.28-.81.36s-.63.11-.96.11c-.4,0-.78-.04-1.14-.11s-.68-.18-.99-.32v-1.81h.11c.07.22.16.45.27.69.11.24.24.47.4.67.15.21.34.37.56.51s.48.2.78.2c.44,0,.78-.13,1.04-.38.26-.25.39-.64.39-1.16,0-.28-.09-.52-.27-.71-.18-.19-.42-.31-.73-.38-.25-.05-.48-.1-.71-.15s-.43-.11-.61-.18c-.35-.12-.63-.32-.84-.62s-.32-.64-.32-1.05c0-.28.06-.54.18-.77.12-.23.28-.42.48-.59.2-.16.43-.29.7-.38.27-.09.55-.13.85-.13.38,0,.72.03,1.01.1s.57.15.83.25l.16,1.7-.11.03c-.13-.27-.25-.53-.38-.76-.13-.23-.27-.43-.42-.6-.15-.17-.33-.3-.53-.39s-.42-.14-.68-.14c-.15,0-.31.03-.46.08s-.28.13-.4.24c-.11.11-.21.24-.28.4-.07.16-.11.34-.11.55,0,.34.1.58.29.73.19.15.43.26.73.33.2.05.42.09.66.14.24.05.44.1.62.14.41.1.76.31,1.05.63.29.32.43.71.43,1.18,0,.36-.07.66-.21.92Z"/><path class="cls-1" d="M120.15,57.27c-.13.25-.3.48-.52.69-.22.21-.48.38-.79.52-.31.14-.65.21-1.02.21-.47,0-.89-.09-1.27-.26s-.71-.42-.98-.73c-.27-.32-.48-.68-.62-1.11-.15-.42-.22-.87-.22-1.35,0-.38.07-.76.21-1.14s.33-.72.58-1.02c.25-.3.56-.54.92-.73.36-.19.76-.28,1.2-.28.36,0,.69.05,1.01.14.32.09.59.23.82.42.23.19.42.42.57.71.15.28.23.62.26,1h-4.4c0,.07,0,.16-.01.25,0,.1-.01.19-.01.29,0,.38.05.75.16,1.1.11.35.27.66.48.93s.48.48.79.64c.32.16.69.23,1.11.23.46,0,.86-.12,1.2-.35.34-.23.57-.52.68-.86l.11.03c-.04.2-.12.43-.25.68ZM118.58,52.66c-.23-.24-.55-.36-.94-.36-.26,0-.49.08-.69.23-.21.15-.38.33-.53.53-.15.2-.27.4-.35.61s-.13.36-.15.47h.56c.16,0,.33,0,.49,0s.33,0,.5-.01.37,0,.58,0c.14,0,.26,0,.38-.01.12,0,.22-.03.31-.07.06-.07.11-.14.14-.21.03-.06.05-.16.05-.29,0-.34-.12-.63-.35-.87Z"/><path class="cls-1" d="M128.01,53.29c-.12.13-.25.2-.41.2-.15,0-.26-.03-.35-.08s-.16-.11-.23-.17c-.06-.06-.13-.12-.21-.17s-.17-.08-.3-.08c-.11,0-.22.04-.32.12s-.2.18-.29.29c-.09.12-.17.25-.25.4-.07.15-.14.29-.19.43v3.94c.03.08.09.15.18.19.09.05.19.08.31.1.11.02.23.03.36.03.12,0,.23.02.32.03v.14h-3.07v-.14c.21-.02.39-.06.54-.12.15-.06.23-.17.23-.32v-4.63c0-.07,0-.13-.02-.16-.01-.04-.05-.08-.12-.12-.08-.05-.18-.1-.29-.17s-.22-.13-.33-.17v-.08l1.79-.7h.08l-.03,1.9h.03c.05-.11.12-.27.22-.48.1-.21.23-.42.38-.64s.34-.4.56-.55.47-.23.75-.23c.23,0,.42.07.58.21.16.14.24.31.24.52s-.06.37-.18.5Z"/><path class="cls-1" d="M131.04,58.67v-.14c.11,0,.22-.02.33-.03s.21-.04.29-.07c.09-.03.16-.08.22-.13s.09-.12.09-.21v-4.7c0-.07,0-.14-.02-.19-.01-.05-.05-.1-.12-.15-.08-.05-.18-.11-.29-.16-.11-.05-.24-.1-.36-.15v-.08l1.85-.6h.08v6.12c.02.09.06.16.12.2s.13.07.21.09c.08.02.17.03.27.03.1,0,.19.02.28.03v.14h-2.94ZM133,50.42c-.14.14-.32.21-.53.21s-.37-.07-.52-.22c-.15-.15-.22-.32-.22-.52s.07-.38.21-.52c.14-.14.32-.21.53-.21s.39.07.53.21.21.31.21.52-.07.39-.21.53Z"/><path class="cls-1" d="M142.69,57.27c-.13.25-.3.48-.52.69-.22.21-.48.38-.79.52-.31.14-.65.21-1.02.21-.47,0-.89-.09-1.27-.26s-.71-.42-.98-.73c-.27-.32-.48-.68-.62-1.11-.15-.42-.22-.87-.22-1.35,0-.38.07-.76.21-1.14s.33-.72.58-1.02c.25-.3.56-.54.92-.73.36-.19.76-.28,1.2-.28.36,0,.69.05,1.01.14.32.09.59.23.82.42.23.19.42.42.57.71.15.28.23.62.26,1h-4.4c0,.07,0,.16-.01.25,0,.1-.01.19-.01.29,0,.38.05.75.16,1.1.11.35.27.66.48.93s.48.48.79.64c.32.16.69.23,1.11.23.46,0,.86-.12,1.2-.35.34-.23.57-.52.68-.86l.11.03c-.04.2-.12.43-.25.68ZM141.12,52.66c-.23-.24-.55-.36-.94-.36-.26,0-.49.08-.69.23-.21.15-.38.33-.53.53-.15.2-.27.4-.35.61s-.13.36-.15.47h.56c.16,0,.33,0,.49,0s.33,0,.5-.01.37,0,.58,0c.14,0,.26,0,.38-.01.12,0,.22-.03.31-.07.06-.07.11-.14.14-.21.03-.06.05-.16.05-.29,0-.34-.12-.63-.35-.87Z"/><path class="cls-1" d="M162.02,52.5c-.38.24-.75.54-1.09.89s-.68.74-1.01,1.16c-.33.42-.68.85-1.04,1.27.13.16.27.35.44.57s.37.45.62.71c.24.25.48.45.72.6.24.16.54.23.9.23.18,0,.35-.04.51-.11.16-.07.31-.16.45-.27s.26-.23.37-.36c.11-.13.2-.25.26-.36l.12.05c-.06.18-.18.39-.35.62s-.37.45-.61.65c-.24.2-.5.37-.8.49s-.61.19-.92.19c-.3,0-.58-.05-.84-.16-.25-.1-.5-.25-.72-.43-.22-.18-.43-.39-.62-.62s-.37-.47-.52-.72c-.12.17-.28.37-.49.59-.21.22-.45.42-.73.62-.28.19-.59.35-.93.47-.34.12-.69.18-1.07.18-.42,0-.8-.06-1.14-.18-.34-.12-.62-.3-.85-.52-.23-.22-.4-.49-.53-.79-.12-.3-.19-.62-.19-.94,0-.38.08-.74.24-1.06.16-.32.37-.62.63-.88.26-.26.55-.49.87-.7.32-.21.63-.39.94-.54-.2-.21-.39-.4-.56-.57-.17-.17-.33-.34-.45-.53s-.23-.38-.31-.6c-.08-.22-.12-.48-.12-.78s.07-.58.21-.83.32-.47.55-.64.47-.32.75-.42c.28-.1.56-.15.84-.15.25,0,.49.04.73.11.24.07.45.18.64.32.19.14.34.32.46.54.12.22.18.48.18.77s-.06.56-.19.79-.28.44-.44.62c-.17.18-.34.33-.51.45-.17.12-.31.21-.4.26.28.22.54.45.78.69.24.24.47.49.7.75.25.29.49.59.71.89s.4.58.56.84c.21-.27.41-.53.6-.79.19-.26.35-.52.49-.75.14-.24.25-.45.33-.65s.12-.35.12-.47c0-.2-.05-.36-.16-.47-.11-.11-.25-.19-.42-.25-.17-.05-.37-.09-.58-.1s-.42-.03-.63-.03v-.16l4.78-.11v.16c-.48.06-.9.22-1.29.46ZM157.44,56.22c-.11-.16-.22-.32-.34-.47s-.24-.31-.37-.47c-.13-.16-.28-.34-.45-.54-.09-.11-.2-.23-.34-.37s-.27-.27-.41-.4-.28-.26-.41-.38c-.13-.12-.24-.22-.33-.3-.16.13-.32.28-.48.45-.16.17-.31.37-.45.58-.14.21-.25.44-.34.69-.09.25-.13.51-.13.79s.05.53.14.78c.09.25.22.46.4.65s.38.33.62.44c.24.1.5.16.78.16s.53-.02.75-.07c.22-.05.42-.11.61-.2s.37-.2.54-.33c.17-.13.36-.29.55-.46-.12-.21-.23-.39-.34-.55ZM156.48,50.04c-.06-.21-.14-.39-.25-.55s-.24-.29-.4-.39c-.16-.1-.32-.15-.51-.15-.16,0-.3.04-.42.11-.12.07-.21.16-.29.27-.07.11-.13.23-.16.36-.04.13-.05.25-.05.36,0,.29.03.52.08.68s.15.34.29.53c.15.22.32.41.5.57.18.16.39.35.64.57.24-.25.41-.5.51-.77.1-.27.16-.59.16-.97,0-.21-.03-.42-.09-.62Z"/><path class="cls-1" d="M177.04,57.49c-.16.24-.36.46-.6.64-.24.19-.5.33-.8.43-.3.1-.62.15-.97.15-.44,0-.84-.08-1.22-.25-.38-.17-.69-.41-.96-.71-.27-.31-.47-.66-.62-1.07-.15-.41-.23-.85-.23-1.31,0-.44.08-.86.23-1.25.16-.4.37-.75.64-1.05.27-.3.6-.54.98-.73.38-.18.79-.27,1.24-.27.3,0,.6.04.89.11s.55.18.78.32c.23.14.41.31.56.51.14.2.21.43.21.7,0,.19-.07.36-.21.5s-.31.21-.5.21c-.15,0-.29-.05-.42-.14-.12-.09-.2-.21-.24-.34.05-.13.07-.28.07-.47,0-.34-.09-.62-.27-.84-.18-.22-.46-.34-.84-.34-.28,0-.54.07-.78.22s-.44.34-.62.59c-.17.25-.31.53-.41.86-.1.33-.15.68-.15,1.05,0,.41.05.79.16,1.13s.27.63.47.88c.2.24.45.43.73.56.29.13.61.2.97.2.57,0,1.01-.09,1.34-.28s.6-.46.82-.83l.11.05c-.08.27-.21.53-.37.77Z"/><path class="cls-1" d="M186.27,57.84c-.07.16-.17.31-.29.45-.12.13-.26.23-.42.3s-.34.1-.53.1c-.31,0-.59-.09-.83-.27-.24-.18-.36-.5-.36-.96h-.03c-.07.11-.17.24-.29.38-.12.15-.27.28-.44.41-.17.13-.36.23-.56.31-.2.08-.43.12-.68.12-.15,0-.29-.02-.44-.06-.15-.04-.29-.11-.41-.22-.12-.1-.22-.24-.3-.4-.08-.16-.12-.37-.12-.6,0-.26.1-.5.31-.74.2-.24.46-.45.76-.64s.57-.36.8-.49c.23-.14.44-.25.61-.35s.33-.18.46-.25.24-.13.34-.18v-1.41s-.02-.06-.05-.13-.09-.14-.16-.21c-.08-.07-.18-.14-.32-.2s-.32-.09-.53-.09c-.15,0-.29.03-.43.08s-.27.11-.38.19-.2.16-.26.23c-.06.08-.1.14-.1.2v.62c0,.13-.07.24-.2.34-.13.1-.28.15-.43.15-.15,0-.27-.05-.38-.16-.11-.1-.16-.23-.16-.36,0-.11.03-.21.08-.3.05-.09.12-.17.21-.25.08-.07.17-.14.27-.19.1-.05.18-.1.25-.15.24-.14.48-.27.73-.4.25-.13.48-.24.71-.33s.43-.16.62-.22.34-.08.46-.08c.24,0,.46.06.67.18.21.12.36.28.45.46.04.06.06.18.07.34,0,.16.01.32.01.47,0,.33,0,.63,0,.89,0,.27,0,.52,0,.77s0,.5,0,.76c0,.26,0,.55,0,.86,0,.41.07.68.21.82s.3.2.49.2c.21,0,.37-.04.47-.13s.17-.2.21-.34h.08c0,.17-.05.34-.12.51ZM183.84,54.95c-.16.12-.37.24-.62.38-.25.13-.49.28-.72.43-.23.16-.43.33-.6.51-.17.19-.25.4-.25.64s.08.45.25.64.38.29.64.29c.24,0,.45-.03.63-.08.18-.05.35-.16.51-.32.11-.1.16-.23.16-.38v-2.11Z"/><path class="cls-1" d="M193.93,49.88c-.11.14-.25.21-.42.21s-.3-.04-.42-.13-.22-.19-.31-.3c-.1-.11-.19-.23-.27-.34s-.18-.18-.29-.22c-.05,0-.13.01-.23.04s-.2.08-.31.17-.2.21-.27.38-.13.39-.14.68c-.02.37-.03.68-.03.94s0,.56,0,.88h1.62l-.18.6h-1.45v5.34c.02.08.06.15.14.19.07.05.16.08.27.11s.23.05.36.05.27.02.4.04v.14h-3.48v-.14c.1,0,.22-.03.35-.05.13-.02.26-.05.38-.08.12-.03.23-.07.31-.12s.12-.11.12-.19v-5.3h-.99l.15-.6h.85c0-.38.01-.76.03-1.13.02-.37.08-.65.18-.86.1-.21.24-.4.42-.58.18-.18.39-.33.62-.47.23-.13.49-.24.77-.32s.56-.12.86-.12c.14,0,.27.01.4.04s.25.07.36.12.19.13.26.21c.07.09.1.19.1.32,0,.16-.05.32-.16.45Z"/><path class="cls-1" d="M201.02,57.27c-.13.25-.3.48-.52.69-.22.21-.48.38-.79.52-.31.14-.65.21-1.02.21-.47,0-.89-.09-1.27-.26s-.71-.42-.98-.73c-.27-.32-.48-.68-.62-1.11-.15-.42-.22-.87-.22-1.35,0-.38.07-.76.21-1.14s.33-.72.58-1.02c.25-.3.56-.54.92-.73.36-.19.76-.28,1.2-.28.36,0,.69.05,1.01.14.32.09.59.23.82.42.23.19.42.42.57.71.15.28.23.62.26,1h-4.4c0,.07,0,.16-.01.25,0,.1-.01.19-.01.29,0,.38.05.75.16,1.1.11.35.27.66.48.93s.48.48.79.64c.32.16.69.23,1.11.23.46,0,.86-.12,1.2-.35.34-.23.57-.52.68-.86l.11.03c-.04.2-.12.43-.25.68ZM199.45,52.66c-.23-.24-.55-.36-.94-.36-.26,0-.49.08-.69.23-.21.15-.38.33-.53.53-.15.2-.27.4-.35.61s-.13.36-.15.47h.56c.16,0,.33,0,.49,0s.33,0,.5-.01.37,0,.58,0c.14,0,.26,0,.38-.01.12,0,.22-.03.31-.07.06-.07.11-.14.14-.21.03-.06.05-.16.05-.29,0-.34-.12-.63-.35-.87Z"/><circle class="cls-6" cx="156.19" cy="27.86" r="15.81"/><circle class="cls-5" cx="156.19" cy="27.86" r="12.59"/><circle class="cls-3" cx="156.19" cy="27.86" r="12.59"/><line class="cls-2" x1="39.54" y1="45.54" x2="214.1" y2="46.37"/></g></svg>